<?xml version="1.0" standalone="no"?>
<!DOCTYPE svg PUBLIC "-//W3C//DTD SVG 20010904//EN"
 "http://www.w3.org/TR/2001/REC-SVG-20010904/DTD/svg10.dtd">
<svg version="1.0" xmlns="http://www.w3.org/2000/svg"
 width="610.000000pt" height="654.000000pt" viewBox="0 0 610.000000 654.000000"
 preserveAspectRatio="xMidYMid meet">

<g transform="translate(0.000000,654.000000) scale(0.100000,-0.100000)"
fill="#000000" stroke="none">
<path d="M0 3270 l0 -3270 3050 0 3050 0 0 3270 0 3270 -3050 0 -3050 0 0
-3270z m2645 2365 c352 -36 530 -74 733 -157 53 -22 76 -38 87 -59 13 -23 15
-106 15 -514 l0 -485 -192 0 c-135 0 -208 4 -243 14 -27 8 -84 24 -125 36
-121 35 -346 78 -470 89 -173 16 -448 14 -528 -4 -154 -35 -245 -108 -278
-222 -49 -170 41 -312 284 -447 152 -84 313 -161 467 -221 369 -145 761 -379
941 -562 177 -179 279 -357 335 -583 106 -421 31 -882 -198 -1227 -77 -116
-252 -292 -375 -377 -313 -216 -720 -319 -1258 -318 -278 0 -489 21 -745 73
-246 50 -547 160 -610 223 l-25 25 0 509 0 509 168 -1 167 -1 85 -36 c171 -73
460 -153 670 -185 174 -27 503 -25 626 3 167 39 252 93 306 196 18 33 23 59
23 122 0 70 -3 86 -29 128 -82 138 -262 250 -666 414 -437 178 -782 395 -981
617 -181 202 -282 394 -336 638 -25 114 -25 484 -1 603 82 389 291 706 609
923 207 140 528 249 827 281 132 14 566 12 717 -4z m2497 -401 c97 -23 176
-70 259 -153 116 -116 169 -244 169 -406 0 -161 -54 -290 -170 -405 -116 -116
-243 -170 -402 -170 -105 0 -168 15 -267 62 -345 165 -429 628 -164 908 149
158 357 218 575 164z m308 -3104 l0 -1490 -470 0 -470 0 0 1490 0 1490 470 0
470 0 0 -1490z"/>
</g>
</svg>
